<svg
                        width="56"
                        height="59"
                        viewBox="0 0 56 59"
                        fill="none"
                        xmlns="http://www.w3.org/2000/svg"
                      >
                        <path
                          d="M18.7306 45.1616C18.7306 45.388 18.471 45.569 18.1435 45.569C17.771 45.603 17.5113 45.4219 17.5113 45.1616C17.5113 44.9353 17.771 44.7543 18.0984 44.7543C18.4371 44.7203 18.7306 44.9014 18.7306 45.1616ZM15.2194 44.6524C15.1403 44.8787 15.3661 45.139 15.7048 45.2069C15.9984 45.3201 16.3371 45.2069 16.4048 44.9806C16.4726 44.7543 16.2581 44.494 15.9194 44.3922C15.6258 44.3129 15.2984 44.4261 15.2194 44.6524ZM20.2097 44.4601C19.8823 44.5393 19.6565 44.7543 19.6903 45.0145C19.7242 45.2408 20.0177 45.388 20.3565 45.3087C20.6839 45.2295 20.9097 45.0145 20.8758 44.7882C20.8419 44.5732 20.5371 44.4261 20.2097 44.4601ZM27.6387 1.09766C11.979 1.09766 0 13.0133 0 28.7084C0 41.2577 7.88065 51.9964 19.1371 55.7759C20.5823 56.0362 21.0903 55.1422 21.0903 54.4067C21.0903 53.7051 21.0565 49.8351 21.0565 47.4588C21.0565 47.4588 13.1532 49.1561 11.4935 44.0866C11.4935 44.0866 10.2065 40.7937 8.35484 39.945C8.35484 39.945 5.76935 38.1684 8.53548 38.2024C8.53548 38.2024 11.3468 38.4287 12.8935 41.1219C15.3661 45.4898 19.5097 44.2337 21.1242 43.4869C21.3839 41.6763 22.1177 40.4203 22.9306 39.6734C16.6194 38.9719 10.2516 38.0553 10.2516 27.1694C10.2516 24.0575 11.1097 22.496 12.9161 20.5044C12.6226 19.7688 11.6629 16.7362 13.2097 12.8209C15.5694 12.0854 21 15.8762 21 15.8762C23.2581 15.2425 25.6855 14.9143 28.0903 14.9143C30.4952 14.9143 32.9226 15.2425 35.1806 15.8762C35.1806 15.8762 40.6113 12.074 42.971 12.8209C44.5177 16.7475 43.5581 19.7688 43.2645 20.5044C45.071 22.5073 46.1774 24.0689 46.1774 27.1694C46.1774 38.0892 39.5274 38.9605 33.2161 39.6734C34.2548 40.5674 35.1355 42.2648 35.1355 44.924C35.1355 48.7374 35.1016 53.4562 35.1016 54.3841C35.1016 55.1196 35.621 56.0135 37.0548 55.7533C48.3452 51.9964 56 41.2577 56 28.7084C56 13.0133 43.2984 1.09766 27.6387 1.09766ZM10.9742 40.1261C10.8274 40.2392 10.8613 40.4995 11.0532 40.7145C11.2339 40.8956 11.4935 40.9748 11.6403 40.8277C11.7871 40.7145 11.7532 40.4542 11.5613 40.2392C11.3806 40.0582 11.121 39.979 10.9742 40.1261ZM9.75484 39.2095C9.67581 39.3566 9.78871 39.5377 10.0145 39.6508C10.1952 39.764 10.421 39.73 10.5 39.5716C10.579 39.4245 10.4661 39.2434 10.2403 39.1303C10.0145 39.0624 9.83387 39.0963 9.75484 39.2095ZM13.4129 43.2379C13.2323 43.385 13.3 43.7245 13.5597 43.9395C13.8194 44.1998 14.1468 44.2337 14.2935 44.0527C14.4403 43.9056 14.3726 43.5661 14.1468 43.3511C13.8984 43.0908 13.5597 43.0569 13.4129 43.2379ZM12.1258 41.5745C11.9452 41.6877 11.9452 41.9819 12.1258 42.2421C12.3065 42.5024 12.6113 42.6156 12.7581 42.5024C12.9387 42.3553 12.9387 42.0611 12.7581 41.8008C12.6 41.5406 12.3065 41.4274 12.1258 41.5745Z"
                          fill="black"
                        />
                      </svg>
