<svg width="49" height="57" viewBox="0 0 49 57" fill="none" xmlns="http://www.w3.org/2000/svg">
<path d="M45.5 3.95117H3.48906C1.56406 3.95117 0 5.5407 0 7.49198V49.5212C0 51.4725 1.56406 53.062 3.48906 53.062H45.5C47.425 53.062 49 51.4725 49 49.5212V7.49198C49 5.5407 47.425 3.95117 45.5 3.95117ZM14.8094 46.0462H7.54688V22.6089H14.8203V46.0462H14.8094ZM11.1781 19.4079C8.84844 19.4079 6.96719 17.5115 6.96719 15.1875C6.96719 12.8635 8.84844 10.967 11.1781 10.967C13.4969 10.967 15.3891 12.8635 15.3891 15.1875C15.3891 17.5224 13.5078 19.4079 11.1781 19.4079ZM42.0328 46.0462H34.7703V34.6455C34.7703 31.9268 34.7156 28.4299 30.9969 28.4299C27.2125 28.4299 26.6328 31.3897 26.6328 34.4481V46.0462H19.3703V22.6089H26.3375V25.8099H26.4359C27.4094 23.9682 29.7828 22.0279 33.3156 22.0279C40.6656 22.0279 42.0328 26.8842 42.0328 33.1984V46.0462Z" fill="#0277BD"/>
</svg>

