<svg width="56" height="56" viewBox="0 0 56 56" fill="none" xmlns="http://www.w3.org/2000/svg">
<path d="M50.2436 16.5938C50.2791 17.0912 50.2791 17.5887 50.2791 18.0862C50.2791 33.2587 38.731 50.741 17.6244 50.741C11.1218 50.741 5.08123 48.8576 0 45.5887C0.923891 45.6953 1.81212 45.7308 2.77156 45.7308C8.13695 45.7308 13.0761 43.9187 17.0203 40.8273C11.9746 40.7207 7.74616 37.4161 6.28928 32.8679C7 32.9744 7.71061 33.0455 8.45687 33.0455C9.4873 33.0455 10.5178 32.9033 11.4772 32.6547C6.2183 31.5886 2.27402 26.9694 2.27402 21.3907V21.2486C3.80187 22.1014 5.57867 22.6344 7.46178 22.7054C4.37041 20.6445 2.34511 17.1267 2.34511 13.147C2.34511 11.0151 2.91353 9.06077 3.90852 7.35518C9.55828 14.3196 18.0507 18.8678 27.5734 19.3653C27.3958 18.5125 27.2892 17.6243 27.2892 16.7359C27.2892 10.411 32.406 5.25879 38.7663 5.25879C42.0709 5.25879 45.0556 6.64457 47.1521 8.88315C49.7459 8.38571 52.2332 7.42627 54.4364 6.11159C53.5835 8.77662 51.7713 11.0152 49.3907 12.4364C51.7004 12.1878 53.9389 11.5481 55.9998 10.6598C54.4366 12.9339 52.4822 14.9591 50.2436 16.5938Z" fill="#0277BD" fill-opacity="0.91"/>
</svg>

