<svg width="57" height="57" viewBox="0 0 57 57" fill="none" xmlns="http://www.w3.org/2000/svg">
<path d="M42.4 17.7001C37.1 17.7001 33.1 21.2001 31.5 26.7001C29 22.8001 27 18.4001 25.9 14.6001H20.3V29.3001C20.3 32.2001 17.9 34.6001 15 34.6001C12.1 34.6001 9.7 32.2001 9.7 29.3001V14.7001H4.3V29.4001C4.3 35.5001 9.2 40.4001 15.2 40.4001C21.2 40.4001 26.1 35.5001 26.1 29.4001V26.9001C27.2 29.1001 28.6 31.5001 30.1 33.6001L26.6 49.9001H32.3L34.7 38.0001C36.9 39.4001 39.4 40.2001 42.4 40.2001C48.5 40.2001 53.5 35.2001 53.5 28.8001C53.5 22.7001 48.5 17.7001 42.4 17.7001ZM42.4 34.6001C40.2 34.6001 37.9 33.6001 36.1 32.1001L36.7 29.9001V29.8001C37.1 27.4001 38.4 23.4001 42.5 23.4001C45.6 23.4001 48.1 25.9001 48.1 29.0001C48 32.1001 45.3 34.6001 42.4 34.6001Z" fill="#00C853"/>
</svg>

